#!OML:ASF H:\ColoradoDance\Project 1\Capture day 1\Session 8\male.ASF
:FULLY-SPECIFIED
:DEGREES
1
upperback -1.589930 -3.649980 1.603180
rfoot -20.036699 0.544798
lradius 26.331800
lthumb 4.879850 64.417999
rradius 28.016100
lwrist -13.535100
rhand -19.474800 -4.886850
rhumerus -40.625401 12.035500 -95.067802
lowerneck -20.135900 -7.488130 2.076130
lhand -21.512100 34.494202
ltibia 34.845699
head 11.303800 -4.682930 -5.622240
rwrist -27.613199
lfingers 7.125020
rtoes 48.664398
lowerback 9.725390 -2.557760 -2.854910
rfingers 7.125020
lclavicle 0.000000 -0.000000
upperneck 26.299400 -7.798170 -11.096500
rfemur -15.773800 5.696030 23.788799
thorax -6.850360 -1.640350 3.853610
rclavicle 0.000000 -0.000000
rtibia 37.767700
lfoot -19.988501 -5.228000
lhumerus -42.061298 15.385200 70.915604
rthumb 6.846820 -34.756100
root -34.837002 19.413200 21.633200 -136.574005 87.049400 -137.585007
ltoes -5.661950
lfemur -12.551700 -1.254260 -19.219999
2
upperback -1.931470 -4.349990 1.756900
rfoot -19.587000 0.698006
lradius 27.490200
lthumb 5.178800 64.182503
rradius 28.636200
lwrist -12.732000
rhand -20.589500 -1.303040
rhumerus -40.872601 11.625600 -94.477997
lowerneck -20.622299 -6.760710 4.365820
lhand -21.202499 34.265800
ltibia 34.739399
head 11.109500 -4.388370 -6.384760
rwrist -20.917801
lfingers 7.125020
rtoes 48.876701
lowerback 9.145710 -3.064120 -3.217330
rfingers 7.125020
lclavicle -0.000000 -0.000000
upperneck 25.889200 -7.236440 -12.359400
rfemur -17.111000 4.036000 24.174101
thorax -6.786930 -1.965070 4.293130
rclavicle -0.000000 -0.000000
rtibia 37.498798
lfoot -19.596201 -5.322550
lhumerus -42.478298 15.357000 70.686600
rthumb 5.770720 -31.204500
root -34.858700 19.455099 21.671499 -139.608002 86.177902 -141.869003
ltoes -5.206000
lfemur -14.104300 -2.025270 -18.638901
3
upperback -1.774170 -4.535510 1.781360
rfoot -18.527000 2.055440
lradius 29.032700
lthumb 5.226280 63.607399
rradius 29.547800
lwrist -11.517700
rhand -21.942200 0.544951
rhumerus -40.336102 11.017700 -94.876297
lowerneck -20.141600 -6.168430 6.775860
lhand -21.153400 33.691799
ltibia 34.834301
head 10.699300 -4.154940 -7.278930
rwrist -12.928800
lfingers 7.125020
rtoes 49.087799
lowerback 7.910160 -3.222250 -3.323380
rfingers 7.125020
lclavicle -0.000000 -0.000000
upperneck 25.437300 -6.762190 -14.035200
rfemur -17.672400 2.160990 24.548000
thorax -5.888020 -2.085030 4.300540
rclavicle -0.000000 -0.000000
rtibia 37.488201
lfoot -19.498800 -5.327980
lhumerus -42.509899 15.760400 71.200500
rthumb 4.464550 -29.388000
root -34.842701 19.468300 21.676001 -131.429993 86.179398 -134.175995
ltoes -4.497050
lfemur -14.661200 -1.658830 -18.198200
4
upperback -1.532560 -4.951020 1.703240
rfoot -18.062099 3.194140
lradius 28.483601
lthumb 5.028210 64.102898
rradius 27.638800
lwrist -11.909300
rhand -23.910299 1.198670
rhumerus -39.281502 9.392550 -94.955803
lowerneck -19.739700 -5.514960 8.763350
lhand -21.358500 34.182598
ltibia 34.883499
head 10.530200 -3.819710 -8.048320
rwrist -6.020340
lfingers 7.125020
rtoes 49.308800
lowerback 7.073250 -3.520580 -3.742820
rfingers 7.125020
lclavicle 0.000000 0.000000
upperneck 25.364700 -6.077090 -15.472700
rfemur -17.920200 0.326017 24.644501
thorax -5.091830 -2.308970 4.418570
rclavicle 0.000000 0.000000
rtibia 37.745602
lfoot -19.413900 -5.329070
lhumerus -42.359901 17.057400 70.755699
rthumb 2.564020 -28.765699
root -34.826801 19.471500 21.699800 -132.546005 86.054398 -135.434006
ltoes -3.996330
lfemur -14.844800 -1.785120 -18.094299
